<svg xmlns="http://www.w3.org/2000/svg" preserveAspectRatio="none" xmlns:xlink="http://www.w3.org/1999/xlink" viewBox="0 0 1022.3 648.72">
  <defs>
    <style>
      .cls-1 {
        isolation: isolate;
      }
      .cls-3 {
        fill: #b23c43;
      }
      .cls-4 {
        fill: #7d2931;
      }
      .cls-5 {
        fill: #e34c54;
      }
    </style>
  </defs>
  <title>get involved wave</title>
  <g class="cls-1">
    <g id="Layer_2" data-name="Layer 2">
      <g id="Layer_1-2" data-name="Layer 1">
        <polygon class="cls-3" points="999.96 622.85 815.47 296.98 864.96 620.97 999.96 622.85"/>
        <polygon class="cls-4" points="920.46 622.85 816.97 211.49 810.97 623.97 920.46 622.85"/>
        <polygon class="cls-5" points="836.47 622.2 830.47 8 527.05 10.65 524.55 626.26 836.47 622.2"/>
        <polygon class="cls-3" points="714.97 624.47 879.96 15.5 527.05 13.64 524.55 624.01 714.97 624.47"/><polygon class="cls-4" points="908.46 9.5 529.02 12.13 529.02 10.56 527.21 12.14 527.05 12.14 527.05 12.28 0.8 472.53 0 473.22 0 473.93 3.19 617.66 527.48 624.54 908.46 9.5"/></g>
    </g>
  </g>
</svg>
