<svg xmlns="http://www.w3.org/2000/svg" xmlns:xlink="http://www.w3.org/1999/xlink" viewBox="0 0 916.08 221.19">
	<defs>
		<style>.cls-1{isolation:isolate;}.cls-3,.cls-5{fill:#e34c54;}.cls-4{fill:none;}.cls-4,.cls-5{stroke:#e34c54;stroke-miterlimit:10;}</style>
	</defs>
	<title>foreground-Mountain</title><g class="cls-1">
		<g id="Layer_2" data-name="Layer 2">
			<g id="Layer_1-2" data-name="Layer 1">
				<polygon class="cls-3" points="10.05 204.79 892.73 203.19 772.81 80.23 732.02 98.48 712.51 62.06 673.91 70.04 607.16 15.94 573.78 60.15 505.78 65.39 481.06 104.95 400.7 88.88 353.73 124.73 291.91 89.82 168.35 182.82 99.06 156.58 10.05 204.79"/>
				<polygon class="cls-4" points="10.05 204.79 892.73 203.19 772.81 80.23 732.02 98.48 712.51 62.06 673.91 70.04 607.16 15.94 573.78 60.15 505.78 65.39 481.06 104.95 400.7 88.88 353.73 124.73 291.91 89.82 168.35 182.82 99.06 156.58 10.05 204.79"/>
				<polygon class="cls-5" points="910.11 220.69 9.96 220.69 9.96 203.6 892.06 202.46 892.73 203.19 910.11 220.69"/>
			</g>
		</g>
	</g>
</svg>