<svg xmlns="http://www.w3.org/2000/svg" xmlns:xlink="http://www.w3.org/1999/xlink" viewBox="0 0 930.79 218.64">
	<defs>
		<style>.cls-1{isolation:isolate;}.cls-3,.cls-5{fill:#b23c43;}.cls-4{fill:none;}.cls-4,.cls-5{stroke:#b23c43;stroke-miterlimit:10;}</style>
	</defs>
	<title>midground-mountain</title><g class="cls-1">
		<g id="Layer_2" data-name="Layer 2">
			<g id="Layer_1-2" data-name="Layer 1">
				<polygon class="cls-3" points="12.17 203.04 907.43 203.04 765.65 80.08 724.46 98.5 700.24 61.91 671.55 78.47 585.97 15.8 541.5 70.07 476.02 65.25 457.43 119.52 362.04 88.73 311.09 124.59 255.57 105.02 128.59 180.1 71.72 162.79 12.17 203.04"/>
				<polygon class="cls-4" points="12.17 203.04 907.43 203.04 765.65 80.08 724.46 98.5 700.24 61.91 671.55 78.47 585.97 15.8 541.5 70.07 476.02 65.25 457.43 119.52 362.04 88.73 311.09 124.59 255.57 105.02 128.59 180.1 71.72 162.79 12.17 203.04"/>
				<polygon class="cls-5" points="917.05 210.85 1.53 210.85 12.17 203.04 907.35 203.04 917.05 210.85"/>
			</g>
		</g>
	</g>
</svg>