<svg xmlns="http://www.w3.org/2000/svg" preserveAspectRatio="none" viewBox="0 0 717.55 433.53">
  <defs>
    <style>
      .cls-1 {
        fill: #b23c43;
        stroke: #b23c43;
      }
      .cls-1,
      .cls-3,
      .cls-4,
      .cls-5,
      .cls-6 {
        stroke-miterlimit: 10;
      }
      .cls-2 {
        fill: #e24d54;
      }
      .cls-3 {
        fill: #e34c54;
        stroke: #e34c54;
      }
      .cls-4 {
        fill: #7d2931;
        stroke: #7d2931;
      }
      .cls-5 {
        fill: #4bbae5;
        stroke: #4bbae5;
      }
      .cls-6 {
        fill: #a8d2e3;
        stroke: #a8d2e3;
      }
    </style>
  </defs>
  <title>cityscape</title>
  <g id="Layer_2" data-name="Layer 2">
    <g id="Layer_1-2" data-name="Layer 1"><polygon class="cls-1" points="82.5 33.29 130.91 46.56 131.08 34.34 82.42 26.11 60.53 32.85 60.96 47.56 82.5 33.29"/><polyline class="cls-2" points="407.27 297.79 440.87 320.32 450.36 326.69"/><polygon class="cls-3" points="299.64 133.84 301.13 158.88 324.42 170.76 326.51 146.38 299.64 133.84"/><polygon class="cls-3" points="324.45 331.75 323.76 352.25 378.06 358.07 378.69 341.1 323.76 329.57 324.45 331.75"/><polygon
      class="cls-4"
      points="79.77 56.3 99.92 67.99 99.54 182.55 173.65 193.41 164.11 198.3 116.39 190.44 117.2 216.18 137.63 232.36 139.35 266.08 213.18 329.53 213.18 247.66 220.09 245.68 221.02 281.54 276.42 313.74 277.41 372.93 293.22 375.89 291.24 272.32 264.56 264.43 262.59 178.61 277.41 170.72 274.44 146.06 299.15 135.21 301.13 158.88 323.85 172.69 295.2 161.84 300.14 288.1 327.54 301.05 329.78 320.65 342.49 323.51 342.65 333.4 325.5 329.32 325.83 352.21 378.06 358.07 377.96 362.34 304.09 352.21 304.09 376.87 340.65 390.68 338.68 397.59 401.92 415.34 399.94 366.02 377.22 364.05 379.19 341.36 355.48 336.43 354.49 280.21 369.31 278.23 364.7 276.37 364.06 261.54 403.69 244.79 404.33 257.07 414.77 264.43 404.88 267.38 441.45 317.69 440.64 320.86 407.31 301.42 411.8 372.93 443.42 361.09 446.39 397.59 495.8 421.26 495.8 382.79 495.8 377.86 468.13 369.97 467.14 346.3 483.69 324.93 486.9 367.01 496.79 368 529.4 400.55 532.36 405.48 593.69 397.19 594.26 412.71 716.98 422.03 516.55 430.14 443.42 432.11 212.19 432.5 0.71 433.03 29.5 351.56 61.71 350.86 59.19 66.39 79.77 56.3"/><polygon class="cls-3" points="80.55 0.53 137.49 11.9 136.24 37.7 80.78 26.66 57.12 36.05 56.27 16.23 80.55 0.53"/><polygon class="cls-3" points="80.07 31.87 174.29 52.44 177.05 194.13 99.54 182.55 99.92 67.99 80.07 57.2 59.46 65.89 59.25 42.66 80.07 31.87"/><polygon class="cls-3" points="116.56 189.96 117.2 216.18 137.45 231.66 139.35 266.08 213.18 329.53 212.44 206.7 116.56 189.96"/><polygon class="cls-3" points="219.4 244.6 221.02 281.54 276.31 315.29 277.06 373.96 293.22 376.94 291.2 272.54 219.4 244.6"/><polygon class="cls-3" points="295.2 161.84 339.08 183.3 342.49 323.51 329.78 320.65 327.23 301.52 299.99 289.21 295.2 161.84"/><polygon class="cls-3" points="304.09 352.21 399.94 366.02 401.92 415.34 338.68 397.59 340.13 391.37 303.46 376.45 304.09 352.21"/><polygon class="cls-3" points="403.69 244.79 404.33 257.07 414.34 264.3 414.34 251.24 403.69 244.79"/><polygon class="cls-3" points="412.52 265.25 428.75 277.16 440.87 316.79 404.6 267.06 412.52 265.25"/><polygon class="cls-3" points="407.31 301.42 450.33 325.78 450.61 361.62 494.16 377.43 496.7 378.28 495.8 421.26 446.39 397.59 444.05 360.58 411.8 372.93 407.31 301.42"/><polygon class="cls-3" points="483.63 323.83 529.96 338.08 531.96 404.08 496.79 368 486.9 367.01 483.63 323.83"/><polygon class="cls-3" points="593.69 397.19 594.26 412.71 716.98 422.03 717.05 407.33 593.69 397.19"/><polygon class="cls-5" points="160.06 170.06 148.64 167.56 148.64 185.7 160.49 187.66 160.06 170.06"/><polygon class="cls-5" points="174.22 172.81 162.8 170.31 162.8 188.45 174.66 190.42 174.22 172.81"/><polygon class="cls-5" points="130.42 164.87 119 162.37 119 180.51 130.85 182.47 130.42 164.87"/><polygon class="cls-5" points="114.98 162.15 103.56 159.65 103.56 177.79 115.41 179.76 114.98 162.15"/><polygon class="cls-5" points="145.59 167.62 134.17 165.12 134.17 183.26 146.02 185.23 145.59 167.62"/><polygon class="cls-5" points="160.06 148.39 148.64 145.9 148.64 164.03 160.49 166 160.06 148.39"/><polygon class="cls-5" points="174.22 151.14 162.8 148.65 162.8 166.78 174.66 168.75 174.22 151.14"/><polygon class="cls-5" points="114.98 140.48 103.56 137.99 103.56 156.12 115.41 158.09 114.98 140.48"/><polygon class="cls-5" points="145.59 145.95 134.17 143.46 134.17 161.59 146.02 163.56 145.59 145.95"/><polygon class="cls-6" points="160.06 127.76 148.64 125.26 148.64 143.4 160.49 145.37 160.06 127.76"/><polygon class="cls-6" points="174.22 130.51 162.8 128.01 162.8 146.15 174.66 148.12 174.22 130.51"/><polygon class="cls-5" points="130.42 122.57 119 120.07 119 138.21 130.85 140.18 130.42 122.57"/><polygon class="cls-5" points="114.98 119.85 103.56 117.35 103.56 135.49 115.41 137.46 114.98 119.85"/><polygon class="cls-5" points="145.59 125.32 134.17 122.82 134.17 140.96 146.02 142.93 145.59 125.32"/><polygon class="cls-6" points="160.06 106.09 148.64 103.6 148.64 121.73 160.49 123.7 160.06 106.09"/><polygon class="cls-6" points="174.22 108.84 162.8 106.35 162.8 124.49 174.66 126.45 174.22 108.84"/><polygon class="cls-6" points="130.42 100.9 119 98.41 119 116.54 130.85 118.51 130.42 100.9"/><polygon class="cls-5" points="114.98 98.18 103.56 95.69 103.56 113.83 115.41 115.79 114.98 98.18"/><polygon class="cls-6" points="145.59 103.65 134.17 101.16 134.17 119.3 146.02 121.26 145.59 103.65"/><polygon class="cls-6" points="160.06 84.77 148.64 82.28 148.64 100.41 160.49 102.38 160.06 84.77"/><polygon class="cls-6" points="174.22 87.52 162.8 85.03 162.8 103.16 174.66 105.13 174.22 87.52"/><polygon class="cls-6" points="130.42 79.58 119 77.09 119 95.22 130.85 97.19 130.42 79.58"/><polygon class="cls-6" points="114.98 76.86 103.56 74.37 103.56 92.5 115.41 94.47 114.98 76.86"/><polygon class="cls-6" points="145.59 82.33 134.17 79.84 134.17 97.97 146.02 99.94 145.59 82.33"/><polygon class="cls-6" points="160.06 63.11 148.64 60.61 148.64 78.75 160.49 80.72 160.06 63.11"/><polygon class="cls-6" points="174.22 65.86 162.8 63.36 162.8 81.5 174.66 83.47 174.22 65.86"/><polygon class="cls-6" points="130.42 57.92 119 55.42 119 73.56 130.85 75.53 130.42 57.92"/><polygon class="cls-6" points="114.98 55.2 103.56 52.7 103.56 70.84 115.41 72.81 114.98 55.2"/><polygon class="cls-6" points="145.59 60.67 134.17 58.17 134.17 76.31 146.02 78.28 145.59 60.67"/><polygon class="cls-6" points="208.81 210.58 201.33 209.11 201.33 217.13 208.55 218.73 208.81 210.58"/><polygon class="cls-6" points="195.84 208.18 188.36 206.71 188.36 214.73 195.57 216.34 195.84 208.18"/><polygon class="cls-6" points="182.87 206.39 175.39 204.92 175.39 212.94 182.6 214.54 182.87 206.39"/><polygon class="cls-6" points="169.9 204.39 162.41 202.92 162.41 210.94 169.63 212.55 169.9 204.39"/><polygon class="cls-6" points="156.93 201.9 149.44 200.43 149.44 208.45 156.66 210.05 156.93 201.9"/><polygon class="cls-6" points="143.95 200.1 136.47 198.63 136.47 206.65 143.69 208.25 143.95 200.1"/><polygon class="cls-6" points="130.98 197.91 123.5 196.44 123.5 204.46 130.71 206.06 130.98 197.91"/><polygon class="cls-6" points="208.22 225.25 200.73 223.78 200.73 231.8 207.95 233.4 208.22 225.25"/><polygon class="cls-6" points="182.27 221.06 174.79 219.59 174.79 227.6 182 229.21 182.27 221.06"/><polygon class="cls-6" points="169.3 219.06 161.81 217.59 161.81 225.61 169.03 227.22 169.3 219.06"/><polygon class="cls-6" points="156.33 216.57 148.84 215.1 148.84 223.12 156.06 224.72 156.33 216.57"/><polygon class="cls-6" points="143.35 214.77 135.87 213.3 135.87 221.32 143.09 222.92 143.35 214.77"/><polygon class="cls-6" points="130.38 212.58 122.9 211.11 122.9 219.13 130.11 220.73 130.38 212.58"/><polygon class="cls-6" points="207.92 241.11 200.43 239.64 200.43 247.66 207.65 249.27 207.92 241.11"/><polygon class="cls-6" points="194.94 238.72 187.46 237.25 187.46 245.27 194.68 246.87 194.94 238.72"/><polygon class="cls-6" points="181.97 236.92 174.49 235.45 174.49 243.47 181.71 245.08 181.97 236.92"/><polygon class="cls-6" points="169 234.93 161.51 233.46 161.51 241.48 168.73 243.08 169 234.93"/><polygon class="cls-5" points="156.03 232.43 148.54 230.96 148.54 238.98 155.76 240.59 156.03 232.43"/><polygon class="cls-6" points="207.92 256.68 200.43 255.21 200.43 263.23 207.65 264.83 207.92 256.68"/><polygon class="cls-6" points="194.94 254.29 187.46 252.82 187.46 260.83 194.68 262.44 194.94 254.29"/><polygon class="cls-6" points="181.97 252.49 174.49 251.02 174.49 259.04 181.71 260.64 181.97 252.49"/><polygon class="cls-5" points="169 250.5 161.51 249.03 161.51 257.05 168.73 258.65 169 250.5"/><polygon class="cls-5" points="156.03 248 148.54 246.53 148.54 254.55 155.76 256.15 156.03 248"/><polygon class="cls-6" points="208.22 271.35 200.73 269.88 200.73 277.9 207.95 279.5 208.22 271.35"/><polygon class="cls-5" points="195.24 268.95 187.76 267.49 187.76 275.5 194.98 277.11 195.24 268.95"/><polygon class="cls-5" points="182.27 267.16 174.79 265.69 174.79 273.71 182 275.31 182.27 267.16"/><polygon class="cls-5" points="169.3 265.17 161.81 263.69 161.81 271.71 169.03 273.32 169.3 265.17"/><polygon class="cls-5" points="156.33 262.67 148.84 261.2 148.84 269.22 156.06 270.82 156.33 262.67"/><polygon class="cls-5" points="208.52 285.42 201.03 283.95 201.03 291.97 208.25 293.57 208.52 285.42"/><polygon class="cls-5" points="195.54 283.02 188.06 281.56 188.06 289.57 195.28 291.18 195.54 283.02"/><polygon class="cls-5" points="182.57 281.23 175.09 279.76 175.09 287.78 182.3 289.38 182.57 281.23"/><polygon class="cls-5" points="169.6 279.24 162.11 277.77 162.11 285.78 169.33 287.39 169.6 279.24"/><polygon class="cls-5" points="209.41 299.19 201.93 297.72 201.93 305.74 209.15 307.34 209.41 299.19"/><polygon class="cls-5" points="196.44 296.8 188.96 295.33 188.96 303.35 196.17 304.95 196.44 296.8"/><polygon class="cls-5" points="183.77 293.2 176.28 291.73 176.28 299.75 183.5 301.36 183.77 293.2"/><polygon class="cls-5" points="210.31 311.76 202.83 310.29 202.83 318.31 210.04 319.92 210.31 311.76"/><polygon class="cls-6" points="328.02 183.68 335.87 188.6 336.6 207.72 328.75 204.53 328.02 183.68"/><polygon class="cls-6" points="315.85 177.96 323.7 182.88 324.44 201.99 316.59 198.81 315.85 177.96"/><polygon class="cls-6" points="302.83 173.38 310.68 178.3 311.42 197.41 303.57 194.23 302.83 173.38"/><polygon class="cls-6" points="328.02 210.58 335.87 215.5 336.6 234.62 328.75 231.43 328.02 210.58"/><polygon class="cls-6" points="315.85 204.86 323.7 209.78 324.44 228.89 316.59 225.71 315.85 204.86"/><polygon class="cls-5" points="302.83 200.28 310.68 205.2 311.42 224.31 303.57 221.13 302.83 200.28"/><polygon class="cls-6" points="328.02 237.48 335.87 242.4 336.6 261.52 328.75 258.33 328.02 237.48"/><polygon class="cls-5" points="315.85 231.76 323.7 236.68 324.44 255.79 316.59 252.61 315.85 231.76"/><polygon class="cls-5" points="302.83 227.18 310.68 232.1 311.42 251.22 303.57 248.03 302.83 227.18"/><polygon class="cls-5" points="328.02 265.52 335.87 270.45 336.6 289.56 328.75 286.38 328.02 265.52"/><polygon class="cls-5" points="315.85 259.8 323.7 264.72 324.44 283.84 316.59 280.65 315.85 259.8"/><polygon class="cls-5" points="302.83 255.22 310.68 260.15 311.42 279.26 303.57 276.07 302.83 255.22"/><polygon class="cls-6" points="307.23 361.64 394.5 375.06 394.5 378.42 306.56 363.99 307.23 361.64"/><polygon class="cls-6" points="308.24 368.69 395.51 382.11 395.51 385.47 307.57 371.04 308.24 368.69"/><polygon class="cls-6" points="308.24 377.08 395.51 390.5 395.51 393.86 307.57 379.43 308.24 377.08"/></g>
  </g>
</svg>
