<svg id="Layer_1" data-name="Layer 1" xmlns="http://www.w3.org/2000/svg" viewBox="0 0 1038.5 524.33"><defs><style>.cls-1{fill:#a7d2e2;stroke:#a7d2e2;stroke-miterlimit:10;}</style></defs><title>cloud-dark-right</title><path class="cls-1" d="M.5,373.83a150,150,0,0,1,146-149.94v-.06h91.43A123.51,123.51,0,0,1,456.8,128.31,217.53,217.53,0,0,1,655,.5C775.12.5,872.5,97.88,872.5,218c0,1.95,0,3.89-.08,5.83H884.5v0c1.16,0,2.33,0,3.5,0a150,150,0,0,1,0,300c-1.17,0-2.34,0-3.5,0v0h-738v-.05A150,150,0,0,1,.5,373.83Z"/></svg>