<svg id="Layer_1" data-name="Layer 1" xmlns="http://www.w3.org/2000/svg" viewBox="0 0 1038.5 524.33"><defs><style>.cls-1{fill:#dbedf3;stroke:#dbedf3;stroke-miterlimit:10;}</style></defs><title>cloud-light-left</title><path class="cls-1" d="M1038,373.83A150,150,0,0,0,892,223.89v-.06H800.57A123.51,123.51,0,0,0,581.7,128.31,217.53,217.53,0,0,0,383.5.5C263.38.5,166,97.88,166,218c0,1.95,0,3.89.08,5.83H154v0c-1.16,0-2.33,0-3.5,0a150,150,0,0,0,0,300c1.17,0,2.34,0,3.5,0v0H892v-.05A150,150,0,0,0,1038,373.83Z"/></svg>